 solid motri                           
  facet normal  -1.000000000000E+00 -0.000000000000E+00 -0.000000000000E+00
    outer loop
      vertex   0.000000000000E+00  0.000000000000E+00  0.000000000000E+00
      vertex   0.000000000000E+00  0.000000000000E+00  1.000000000000E+00
      vertex   0.000000000000E+00  1.000000000000E+00  0.000000000000E+00
    endloop
  endfacet
  facet normal  -0.000000000000E+00 -1.000000000000E+00 -0.000000000000E+00
    outer loop
      vertex   0.000000000000E+00  0.000000000000E+00  0.000000000000E+00
      vertex   1.000000000000E+00  0.000000000000E+00  0.000000000000E+00
      vertex   0.000000000000E+00  0.000000000000E+00  1.000000000000E+00
    endloop
  endfacet
  facet normal  -0.000000000000E+00 -0.000000000000E+00 -1.000000000000E+00
    outer loop
      vertex   0.000000000000E+00  0.000000000000E+00  0.000000000000E+00
      vertex   0.000000000000E+00  1.000000000000E+00  0.000000000000E+00
      vertex   1.000000000000E+00  0.000000000000E+00  0.000000000000E+00
    endloop
  endfacet
  facet normal  -0.000000000000E+00  1.000000000000E+00  0.000000000000E+00
    outer loop
      vertex   1.000000000000E+00  1.000000000000E+00  0.000000000000E+00
      vertex   0.000000000000E+00  1.000000000000E+00  0.000000000000E+00
      vertex   1.000000000000E+00  1.000000000000E+00  1.000000000000E+00
    endloop
  endfacet
  facet normal   0.000000000000E+00  0.000000000000E+00 -1.000000000000E+00
    outer loop
      vertex   1.000000000000E+00  1.000000000000E+00  0.000000000000E+00
      vertex   1.000000000000E+00  0.000000000000E+00  0.000000000000E+00
      vertex   0.000000000000E+00  1.000000000000E+00  0.000000000000E+00
    endloop
  endfacet
  facet normal   1.000000000000E+00 -0.000000000000E+00  0.000000000000E+00
    outer loop
      vertex   1.000000000000E+00  1.000000000000E+00  0.000000000000E+00
      vertex   1.000000000000E+00  1.000000000000E+00  1.000000000000E+00
      vertex   1.000000000000E+00  0.000000000000E+00  0.000000000000E+00
    endloop
  endfacet
  facet normal  -0.000000000000E+00  0.000000000000E+00  1.000000000000E+00
    outer loop
      vertex   1.000000000000E+00  0.000000000000E+00  1.000000000000E+00
      vertex   1.000000000000E+00  1.000000000000E+00  1.000000000000E+00
      vertex   0.000000000000E+00  0.000000000000E+00  1.000000000000E+00
    endloop
  endfacet
  facet normal   1.000000000000E+00  0.000000000000E+00 -0.000000000000E+00
    outer loop
      vertex   1.000000000000E+00  0.000000000000E+00  1.000000000000E+00
      vertex   1.000000000000E+00  0.000000000000E+00  0.000000000000E+00
      vertex   1.000000000000E+00  1.000000000000E+00  1.000000000000E+00
    endloop
  endfacet
  facet normal   0.000000000000E+00 -1.000000000000E+00  0.000000000000E+00
    outer loop
      vertex   1.000000000000E+00  0.000000000000E+00  1.000000000000E+00
      vertex   0.000000000000E+00  0.000000000000E+00  1.000000000000E+00
      vertex   1.000000000000E+00  0.000000000000E+00  0.000000000000E+00
    endloop
  endfacet
  facet normal   0.000000000000E+00 -0.000000000000E+00  1.000000000000E+00
    outer loop
      vertex   0.000000000000E+00  1.000000000000E+00  1.000000000000E+00
      vertex   0.000000000000E+00  0.000000000000E+00  1.000000000000E+00
      vertex   1.000000000000E+00  1.000000000000E+00  1.000000000000E+00
    endloop
  endfacet
  facet normal  -1.000000000000E+00  0.000000000000E+00  0.000000000000E+00
    outer loop
      vertex   0.000000000000E+00  1.000000000000E+00  1.000000000000E+00
      vertex   0.000000000000E+00  1.000000000000E+00  0.000000000000E+00
      vertex   0.000000000000E+00  0.000000000000E+00  1.000000000000E+00
    endloop
  endfacet
  facet normal   0.000000000000E+00  1.000000000000E+00 -0.000000000000E+00
    outer loop
      vertex   0.000000000000E+00  1.000000000000E+00  1.000000000000E+00
      vertex   1.000000000000E+00  1.000000000000E+00  1.000000000000E+00
      vertex   0.000000000000E+00  1.000000000000E+00  0.000000000000E+00
    endloop
  endfacet
  facet normal   1.000000000000E+00  0.000000000000E+00  0.000000000000E+00
    outer loop
      vertex   1.000000000000E+00  0.000000000000E+00  1.000000000000E+00
      vertex   1.000000000000E+00  1.000000000000E+00  1.000000000000E+00
      vertex   1.000000000000E+00  0.000000000000E+00  2.000000000000E+00
    endloop
  endfacet
  facet normal   0.000000000000E+00 -1.000000000000E+00  0.000000000000E+00
    outer loop
      vertex   1.000000000000E+00  0.000000000000E+00  1.000000000000E+00
      vertex   1.000000000000E+00  0.000000000000E+00  2.000000000000E+00
      vertex   0.000000000000E+00  0.000000000000E+00  1.000000000000E+00
    endloop
  endfacet
  facet normal   0.000000000000E+00  1.000000000000E+00  0.000000000000E+00
    outer loop
      vertex   0.000000000000E+00  1.000000000000E+00  1.000000000000E+00
      vertex   0.000000000000E+00  1.000000000000E+00  2.000000000000E+00
      vertex   1.000000000000E+00  1.000000000000E+00  1.000000000000E+00
    endloop
  endfacet
  facet normal  -1.000000000000E+00  0.000000000000E+00  0.000000000000E+00
    outer loop
      vertex   0.000000000000E+00  1.000000000000E+00  1.000000000000E+00
      vertex   0.000000000000E+00  0.000000000000E+00  1.000000000000E+00
      vertex   0.000000000000E+00  1.000000000000E+00  2.000000000000E+00
    endloop
  endfacet
  facet normal   0.000000000000E+00  0.000000000000E+00  1.000000000000E+00
    outer loop
      vertex   0.000000000000E+00  0.000000000000E+00  2.000000000000E+00
      vertex   1.000000000000E+00  0.000000000000E+00  2.000000000000E+00
      vertex   0.000000000000E+00  1.000000000000E+00  2.000000000000E+00
    endloop
  endfacet
  facet normal   0.000000000000E+00 -1.000000000000E+00  0.000000000000E+00
    outer loop
      vertex   0.000000000000E+00  0.000000000000E+00  2.000000000000E+00
      vertex   0.000000000000E+00  0.000000000000E+00  1.000000000000E+00
      vertex   1.000000000000E+00  0.000000000000E+00  2.000000000000E+00
    endloop
  endfacet
  facet normal  -1.000000000000E+00  0.000000000000E+00  0.000000000000E+00
    outer loop
      vertex   0.000000000000E+00  0.000000000000E+00  2.000000000000E+00
      vertex   0.000000000000E+00  1.000000000000E+00  2.000000000000E+00
      vertex   0.000000000000E+00  0.000000000000E+00  1.000000000000E+00
    endloop
  endfacet
  facet normal   0.000000000000E+00  0.000000000000E+00  1.000000000000E+00
    outer loop
      vertex   1.000000000000E+00  1.000000000000E+00  2.000000000000E+00
      vertex   0.000000000000E+00  1.000000000000E+00  2.000000000000E+00
      vertex   1.000000000000E+00  0.000000000000E+00  2.000000000000E+00
    endloop
  endfacet
  facet normal   0.000000000000E+00  1.000000000000E+00  0.000000000000E+00
    outer loop
      vertex   1.000000000000E+00  1.000000000000E+00  2.000000000000E+00
      vertex   1.000000000000E+00  1.000000000000E+00  1.000000000000E+00
      vertex   0.000000000000E+00  1.000000000000E+00  2.000000000000E+00
    endloop
  endfacet
  facet normal   1.000000000000E+00  0.000000000000E+00  0.000000000000E+00
    outer loop
      vertex   1.000000000000E+00  1.000000000000E+00  2.000000000000E+00
      vertex   1.000000000000E+00  0.000000000000E+00  2.000000000000E+00
      vertex   1.000000000000E+00  1.000000000000E+00  1.000000000000E+00
    endloop
  endfacet
 endsolid motri                           
